<svg width="14" height="14" viewBox="0 0 14 14" fill="none" xmlns="http://www.w3.org/2000/svg">
<path d="M5.24935 9.91634H4.08268C3.30913 9.91634 2.56727 9.60905 2.02029 9.06207C1.47331 8.51509 1.16602 7.77322 1.16602 6.99967C1.16602 6.22613 1.47331 5.48426 2.02029 4.93728C2.56727 4.3903 3.30913 4.08301 4.08268 4.08301H5.24935" stroke="white" stroke-width="1.2" stroke-linecap="round" stroke-linejoin="round"/>
<path d="M8.75 4.0835H9.91667C10.6902 4.0835 11.4321 4.39079 11.9791 4.93777C12.526 5.48475 12.8333 6.22661 12.8333 7.00016C12.8333 7.77371 12.526 8.51558 11.9791 9.06256C11.4321 9.60954 10.6902 9.91683 9.91667 9.91683H8.75" stroke="white" stroke-width="1.2" stroke-linecap="round" stroke-linejoin="round"/>
<path d="M4.66602 7H9.33268" stroke="white" stroke-width="1.2" stroke-linecap="round" stroke-linejoin="round"/>
</svg>
