<svg width="20" height="20" viewBox="0 0 20 20" fill="none" xmlns="http://www.w3.org/2000/svg">
<path d="M3.33366 7.08301C5.83366 7.91634 7.91699 7.49967 10.0003 3.33301C10.417 5.83301 11.2503 7.91634 12.5003 9.99967M15.0003 12.4997C15.4424 12.4997 15.8663 12.6753 16.1788 12.9878C16.4914 13.3004 16.667 13.7243 16.667 14.1663C16.667 14.6084 16.4914 15.0323 16.1788 15.3449C15.8663 15.6574 15.4424 15.833 15.0003 15.833C14.5583 15.833 14.1344 15.6574 13.8218 15.3449C13.5093 15.0323 13.3337 14.6084 13.3337 14.1663C13.3337 13.7243 13.5093 13.3004 13.8218 12.9878C14.1344 12.6753 14.5583 12.4997 15.0003 12.4997Z" stroke="#808080" stroke-width="1.6" stroke-linecap="round" stroke-linejoin="round"/>
</svg>
