<svg width="20" height="20" viewBox="0 0 20 20" fill="none" xmlns="http://www.w3.org/2000/svg">
<path d="M3.33366 12.917C5.83366 12.0837 7.91699 12.5003 10.0003 16.667C10.417 14.167 11.2503 12.0837 12.5003 10.0003M15.0003 7.50033C15.4424 7.50033 15.8663 7.32473 16.1788 7.01217C16.4914 6.69961 16.667 6.27569 16.667 5.83366C16.667 5.39163 16.4914 4.96771 16.1788 4.65515C15.8663 4.34259 15.4424 4.16699 15.0003 4.16699C14.5583 4.16699 14.1344 4.34259 13.8218 4.65515C13.5093 4.96771 13.3337 5.39163 13.3337 5.83366C13.3337 6.27569 13.5093 6.69961 13.8218 7.01217C14.1344 7.32473 14.5583 7.50033 15.0003 7.50033Z" stroke="#808080" stroke-width="1.6" stroke-linecap="round" stroke-linejoin="round"/>
</svg>
