<svg width="20" height="20" viewBox="0 0 20 20" fill="none" xmlns="http://www.w3.org/2000/svg">
<path d="M6.66667 8.25C9.16667 9.08333 11.25 8.66667 13.3333 4.5C13.75 7 14.5833 9.08333 15.8333 11.1667M17.3333 13.6667C17.7754 13.6667 18.1993 13.8423 18.5118 14.1548C18.8244 14.4674 19 14.8913 19 15.3333C19 15.7754 18.8244 16.1993 18.5118 16.5118C18.1993 16.8244 17.7754 17 17.3333 17C16.8913 17 16.4674 16.8244 16.1548 16.5118C15.8423 16.1993 15.6667 15.7754 15.6667 15.3333C15.6667 14.8913 15.8423 14.4674 16.1548 14.1548C16.4674 13.8423 16.8913 13.6667 17.3333 13.6667Z" stroke="#808080" stroke-width="1.6" stroke-linecap="round" stroke-linejoin="round"/>
<path d="M4.84485 3.48783C4.53229 3.17527 4.10837 2.99967 3.66634 2.99967C3.22431 2.99967 2.80039 3.17527 2.48783 3.48783C2.17527 3.80039 1.99967 4.22431 1.99967 4.66634C1.99967 5.10837 2.17527 5.53229 2.48783 5.84485C2.80039 6.15741 3.22431 6.33301 3.66634 6.33301C4.10837 6.33301 4.53229 6.15741 4.84485 5.84485C5.15741 5.53229 5.33301 5.10837 5.33301 4.66634C5.33301 4.22431 5.15741 3.80039 4.84485 3.48783Z" stroke="#808080" stroke-width="1.6" stroke-linecap="round" stroke-linejoin="round"/>
</svg>
