<?xml version="1.0" encoding="utf-8"?>
<!-- Generator: Adobe Illustrator 27.3.1, SVG Export Plug-In . SVG Version: 6.00 Build 0)  -->
<svg version="1.1" id="Layer_1" xmlns="http://www.w3.org/2000/svg" xmlns:xlink="http://www.w3.org/1999/xlink" x="0px" y="0px"
	 viewBox="0 0 20 20" style="enable-background:new 0 0 20 20;" xml:space="preserve">
<style type="text/css">
	.st0{fill:#808080;}
</style>
<g>
	<path class="st0" d="M10,3.8c-1.4,0-2.7,0.5-3.8,1.3l8.7,8.7c0.8-1,1.3-2.4,1.3-3.8C16.2,6.6,13.4,3.8,10,3.8z"/>
	<path class="st0" d="M3.8,10c0,3.4,2.8,6.2,6.2,6.2c1.4,0,2.7-0.5,3.8-1.3L5.1,6.2C4.3,7.3,3.8,8.6,3.8,10z"/>
	<path class="st0" d="M17.8,0H2.2C1,0,0,1,0,2.2v15.6C0,19,1,20,2.2,20h15.6c1.2,0,2.2-1,2.2-2.2V2.2C20,1,19,0,17.8,0z M15.7,15.4
		c0,0.1-0.1,0.1-0.1,0.2c-0.1,0.1-0.1,0.1-0.2,0.1C14,17,12.1,17.8,10,17.8c-4.3,0-7.8-3.5-7.8-7.8c0-2.1,0.8-4,2.1-5.4
		c0-0.1,0.1-0.1,0.1-0.2c0.1-0.1,0.1-0.1,0.2-0.1C6,3,7.9,2.2,10,2.2c4.3,0,7.8,3.5,7.8,7.8C17.8,12.1,17,14,15.7,15.4z"/>
</g>
</svg>
