<?xml version="1.0" encoding="utf-8"?>
<!-- Generator: Adobe Illustrator 27.3.1, SVG Export Plug-In . SVG Version: 6.00 Build 0)  -->
<svg version="1.1" id="Layer_1" xmlns="http://www.w3.org/2000/svg" xmlns:xlink="http://www.w3.org/1999/xlink" x="0px" y="0px"
	 viewBox="0 0 20 20" style="enable-background:new 0 0 20 20;" xml:space="preserve">
<style type="text/css">
	.st0{clip-path:url(#SVGID_00000140709813324181988890000005632580518478814097_);fill:#808080;}
</style>
<g>
	<defs>
		<rect id="SVGID_1_" width="20" height="20"/>
	</defs>
	<clipPath id="SVGID_00000045593452717935125170000002008028291737686922_">
		<use xlink:href="#SVGID_1_"  style="overflow:visible;"/>
	</clipPath>
	<path style="clip-path:url(#SVGID_00000045593452717935125170000002008028291737686922_);fill:#808080;" d="M17.8,0H2.2
		C1,0,0,1,0,2.2v15.6C0,19,1,20,2.2,20h15.6c1.2,0,2.2-1,2.2-2.2V2.2C20,1,19,0,17.8,0z M7.1,4l2.5-2.5c0.1-0.1,0.1-0.1,0.2-0.1
		c0.1-0.1,0.3-0.1,0.5,0c0.1,0,0.1,0.1,0.2,0.1L12.9,4c0.2,0.2,0.2,0.6,0,0.8c-0.2,0.2-0.6,0.2-0.8,0l-1.4-1.4v4.1
		c0,0.3-0.3,0.6-0.6,0.6S9.4,7.9,9.4,7.5V3.4L8,4.9C7.8,5,7.7,5.1,7.5,5.1S7.2,5,7.1,4.9C6.9,4.7,6.9,4.3,7.1,4z M4.9,12.9
		c-0.1,0.1-0.3,0.2-0.4,0.2S4.2,13,4,12.9l-2.5-2.5c-0.1-0.1-0.1-0.1-0.1-0.2c0-0.1,0-0.1,0-0.2c0,0,0,0,0,0c0,0,0,0,0,0
		c0-0.1,0-0.2,0-0.2c0-0.1,0.1-0.1,0.1-0.2c0,0,0,0,0,0L4,7.1c0.2-0.2,0.6-0.2,0.8,0s0.2,0.6,0,0.8L3.4,9.4h4.1
		c0.3,0,0.6,0.3,0.6,0.6s-0.3,0.6-0.6,0.6H3.4L4.9,12C5.1,12.3,5.1,12.7,4.9,12.9z M12.9,16l-2.5,2.5c-0.1,0.1-0.1,0.1-0.2,0.1
		c-0.1,0-0.2,0-0.2,0s-0.2,0-0.2,0c-0.1,0-0.1-0.1-0.2-0.1L7.1,16c-0.2-0.2-0.2-0.6,0-0.8c0.2-0.2,0.6-0.2,0.8,0l1.4,1.4v-4.1
		c0-0.3,0.3-0.6,0.6-0.6s0.6,0.3,0.6,0.6v4.1l1.4-1.4c0.2-0.2,0.6-0.2,0.8,0C13.1,15.3,13.1,15.7,12.9,16z M18.6,10
		C18.6,10,18.6,10,18.6,10c0,0.1,0,0.2,0,0.2c0,0.1-0.1,0.1-0.1,0.2L16,12.9c-0.1,0.1-0.3,0.2-0.4,0.2s-0.3-0.1-0.4-0.2
		c-0.2-0.2-0.2-0.6,0-0.8l1.4-1.4h-4.1c-0.3,0-0.6-0.3-0.6-0.6s0.3-0.6,0.6-0.6h4.1L15.1,8c-0.2-0.2-0.2-0.6,0-0.8
		c0.2-0.2,0.6-0.2,0.8,0l2.5,2.5c0,0,0,0,0,0c0,0,0.1,0.1,0.1,0.1C18.6,9.8,18.6,9.9,18.6,10C18.6,10,18.6,10,18.6,10
		C18.6,10,18.6,10,18.6,10z"/>
</g>
</svg>
