<svg width="20" height="20" viewBox="0 0 20 20" fill="none" xmlns="http://www.w3.org/2000/svg">
<g clip-path="url(#clip0_243_4122)">
<path d="M2.22222 0.8H17.7778C18.5632 0.8 19.2 1.43675 19.2 2.22222V17.7778C19.2 18.5632 18.5632 19.2 17.7778 19.2H2.22222C1.43675 19.2 0.8 18.5632 0.8 17.7778V2.22222C0.8 1.43675 1.43675 0.8 2.22222 0.8Z" stroke="#808080" stroke-width="1.6" stroke-linecap="round" stroke-linejoin="round"/>
<path d="M14.6667 4H5.33333C4.59695 4 4 4.59695 4 5.33333V14.6667C4 15.403 4.59695 16 5.33333 16H14.6667C15.403 16 16 15.403 16 14.6667V5.33333C16 4.59695 15.403 4 14.6667 4Z" fill="#808080"/>
</g>
<defs>
<clipPath id="clip0_243_4122">
<rect width="20" height="20" fill="white"/>
</clipPath>
</defs>
</svg>
