<?xml version="1.0" encoding="utf-8"?>
<!-- Generator: Adobe Illustrator 27.3.1, SVG Export Plug-In . SVG Version: 6.00 Build 0)  -->
<svg version="1.1" id="Layer_1" xmlns="http://www.w3.org/2000/svg" xmlns:xlink="http://www.w3.org/1999/xlink" x="0px" y="0px"
	 viewBox="0 0 20 20" style="enable-background:new 0 0 20 20;" xml:space="preserve">
<style type="text/css">
	.st0{fill:#808080;}
</style>
<path class="st0" d="M17.8,0H2.2C1,0,0,1,0,2.2v15.6C0,19,1,20,2.2,20h15.6c1.2,0,2.2-1,2.2-2.2V2.2C20,1,19,0,17.8,0z M16.4,10.6
	l-5.8,5.8c-0.1,0.1-0.2,0.1-0.3,0.2c-0.1,0-0.1,0-0.2,0c0,0-0.1,0-0.1,0c0,0-0.1,0-0.1,0c-0.1,0-0.1,0-0.2,0c-0.1,0-0.2-0.1-0.3-0.2
	l-5.8-5.8c-0.3-0.3-0.3-0.8,0-1.1c0.3-0.3,0.8-0.3,1.1,0l4.5,4.5V4.2c0-0.4,0.4-0.8,0.8-0.8s0.8,0.4,0.8,0.8v9.7l4.5-4.5
	c0.3-0.3,0.8-0.3,1.1,0C16.7,9.7,16.7,10.3,16.4,10.6z"/>
</svg>
