<?xml version="1.0" encoding="utf-8"?>
<!-- Generator: Adobe Illustrator 27.3.1, SVG Export Plug-In . SVG Version: 6.00 Build 0)  -->
<svg version="1.1" id="Layer_1" xmlns="http://www.w3.org/2000/svg" xmlns:xlink="http://www.w3.org/1999/xlink" x="0px" y="0px"
	 viewBox="0 0 20 20" style="enable-background:new 0 0 20 20;" xml:space="preserve">
<style type="text/css">
	.st0{fill:#808080;}
</style>
<path class="st0" d="M17.8,0H2.2C1,0,0,1,0,2.2v15.6C0,19,1,20,2.2,20h15.6c1.2,0,2.2-1,2.2-2.2V2.2C20,1,19,0,17.8,0z M17.7,10.3
	c0,0.1-0.1,0.2-0.2,0.2c0,0,0,0,0,0l-3,3c-0.2,0.2-0.4,0.2-0.6,0.2s-0.4-0.1-0.6-0.2c-0.3-0.3-0.3-0.8,0-1.1l1.6-1.6H4.9l1.6,1.6
	c0.3,0.3,0.3,0.8,0,1.1c-0.2,0.2-0.4,0.2-0.6,0.2s-0.4-0.1-0.6-0.2l-3-3c0,0,0,0,0,0c-0.1-0.1-0.1-0.1-0.1-0.2
	c-0.1-0.2-0.1-0.4,0-0.6c0-0.1,0.1-0.1,0.1-0.2c0,0,0,0,0,0l3-3c0.3-0.3,0.8-0.3,1.1,0c0.3,0.3,0.3,0.8,0,1.1L4.9,9.2h10.1l-1.6-1.6
	c-0.3-0.3-0.3-0.8,0-1.1c0.3-0.3,0.8-0.3,1.1,0l3,3c0,0,0,0,0,0c0.1,0.1,0.1,0.2,0.2,0.2C17.8,9.9,17.8,10.1,17.7,10.3z"/>
</svg>
