<svg width="20" height="20" viewBox="0 0 20 20" fill="none" xmlns="http://www.w3.org/2000/svg">
<path d="M10 1.6665V18.3332" stroke="#808080" stroke-width="1.6" stroke-linecap="round" stroke-linejoin="round"/>
<path d="M6.66666 8H3.33332C2.8913 8 2.46737 7.8244 2.15481 7.51184C1.84225 7.19928 1.66666 6.77536 1.66666 6.33333V4.66667C1.66666 3.75 2.41666 3 3.33332 3H6.66666" fill="#808080"/>
<path d="M13.3333 8H16.6666C17.1086 8 17.5326 7.8244 17.8451 7.51184C18.1577 7.19928 18.3333 6.77536 18.3333 6.33333V4.66667C18.3333 4.22464 18.1577 3.80072 17.8451 3.48816C17.5326 3.17559 17.1086 3 16.6666 3H13.3333" fill="#808080"/>
<path d="M6.66666 17H5.83332C5.3913 17 4.96737 16.8244 4.65481 16.5118C4.34225 16.1993 4.16666 15.7754 4.16666 15.3333V13.6667C4.16666 12.75 4.91666 12 5.83332 12H6.66666" fill="#808080"/>
<path d="M13.3333 12H14.1666C14.6086 12 15.0326 12.1756 15.3451 12.4882C15.6577 12.8007 15.8333 13.2246 15.8333 13.6667V15.3333C15.8333 15.7754 15.6577 16.1993 15.3451 16.5118C15.0326 16.8244 14.6086 17 14.1666 17H13.3333" fill="#808080"/>
</svg>
