<svg width="20" height="20" viewBox="0 0 20 20" fill="none" xmlns="http://www.w3.org/2000/svg">
<path d="M2.5 15.8333C9.16667 15.8333 17.5 2.5 17.5 2.5M14.1667 15.8333C14.1667 16.2754 14.3423 16.6993 14.6548 17.0118C14.9674 17.3244 15.3913 17.5 15.8333 17.5C16.2754 17.5 16.6993 17.3244 17.0118 17.0118C17.3244 16.6993 17.5 16.2754 17.5 15.8333C17.5 15.3913 17.3244 14.9674 17.0118 14.6548C16.6993 14.3423 16.2754 14.1667 15.8333 14.1667C15.3913 14.1667 14.9674 14.3423 14.6548 14.6548C14.3423 14.9674 14.1667 15.3913 14.1667 15.8333ZM14.1667 15.8333H12.5M10 15.8333H8.33333" stroke="#808080" stroke-width="1.6" stroke-linecap="round" stroke-linejoin="round"/>
</svg>
