<svg width="20" height="20" viewBox="0 0 20 20" fill="none" xmlns="http://www.w3.org/2000/svg">
<path d="M6.24967 13.7497L13.7497 6.24967M3.33301 14.9997C3.33301 15.4417 3.5086 15.8656 3.82116 16.1782C4.13372 16.4907 4.55765 16.6663 4.99967 16.6663C5.4417 16.6663 5.86563 16.4907 6.17819 16.1782C6.49075 15.8656 6.66634 15.4417 6.66634 14.9997C6.66634 14.5576 6.49075 14.1337 6.17819 13.8212C5.86563 13.5086 5.4417 13.333 4.99967 13.333C4.55765 13.333 4.13372 13.5086 3.82116 13.8212C3.5086 14.1337 3.33301 14.5576 3.33301 14.9997ZM13.333 4.99967C13.333 5.4417 13.5086 5.86563 13.8212 6.17819C14.1337 6.49075 14.5576 6.66634 14.9997 6.66634C15.4417 6.66634 15.8656 6.49075 16.1782 6.17819C16.4907 5.86563 16.6663 5.4417 16.6663 4.99967C16.6663 4.55765 16.4907 4.13372 16.1782 3.82116C15.8656 3.5086 15.4417 3.33301 14.9997 3.33301C14.5576 3.33301 14.1337 3.5086 13.8212 3.82116C13.5086 4.13372 13.333 4.55765 13.333 4.99967Z" stroke="#B6B6B6" stroke-width="1.6" stroke-linecap="round" stroke-linejoin="round"/>
</svg>
