<svg width="20" height="20" viewBox="0 0 20 20" fill="none" xmlns="http://www.w3.org/2000/svg">
<path d="M14.1667 16.667C14.1667 17.109 14.3423 17.5329 14.6548 17.8455C14.9674 18.1581 15.3913 18.3337 15.8333 18.3337C16.2754 18.3337 16.6993 18.1581 17.0118 17.8455C17.3244 17.5329 17.5 17.109 17.5 16.667C17.5 16.225 17.3244 15.801 17.0118 15.4885C16.6993 15.1759 16.2754 15.0003 15.8333 15.0003C15.3913 15.0003 14.9674 15.1759 14.6548 15.4885C14.3423 15.801 14.1667 16.225 14.1667 16.667ZM14.1667 16.667H12.5M5.83333 3.33366C5.83333 3.77569 5.65774 4.19961 5.34518 4.51217C5.03262 4.82473 4.60869 5.00033 4.16667 5.00033C3.72464 5.00033 3.30072 4.82473 2.98816 4.51217C2.67559 4.19961 2.5 3.77569 2.5 3.33366C2.5 2.89163 2.67559 2.46771 2.98816 2.15515C3.30072 1.84259 3.72464 1.66699 4.16667 1.66699C4.60869 1.66699 5.03262 1.84259 5.34518 2.15515C5.65774 2.46771 5.83333 2.89163 5.83333 3.33366ZM5.83333 3.33366H7.5M11.6667 3.33366H10M10 16.667H8.33333M2.5 16.667C8 12 13 7.5 17.5 3.33366" stroke="#808080" stroke-width="1.6" stroke-linecap="round" stroke-linejoin="round"/>
</svg>
