<svg width="20" height="20" viewBox="0 0 20 20" fill="none" xmlns="http://www.w3.org/2000/svg">
<path d="M2.5 17.5C2.5 17.5 10.8333 4.16667 17.5 4.16667M5.83333 4.16667C5.83333 4.60869 5.65774 5.03262 5.34518 5.34518C5.03262 5.65774 4.60869 5.83333 4.16667 5.83333C3.72464 5.83333 3.30072 5.65774 2.98816 5.34518C2.67559 5.03262 2.5 4.60869 2.5 4.16667C2.5 3.72464 2.67559 3.30072 2.98816 2.98816C3.30072 2.67559 3.72464 2.5 4.16667 2.5C4.60869 2.5 5.03262 2.67559 5.34518 2.98816C5.65774 3.30072 5.83333 3.72464 5.83333 4.16667ZM5.83333 4.16667H7.5M11.6667 4.16667H10" stroke="#808080" stroke-width="1.6" stroke-linecap="round" stroke-linejoin="round"/>
</svg>
