<svg width="20" height="20" viewBox="0 0 20 20" fill="none" xmlns="http://www.w3.org/2000/svg">
<path d="M13.3333 3.33301H3.33334C2.41286 3.33301 1.66667 4.0792 1.66667 4.99967V6.66634C1.66667 7.58682 2.41286 8.33301 3.33334 8.33301H13.3333C14.2538 8.33301 15 7.58682 15 6.66634V4.99967C15 4.0792 14.2538 3.33301 13.3333 3.33301Z" fill="#808080"/>
<path d="M13.3333 11.6665H9.16667C8.24619 11.6665 7.5 12.4127 7.5 13.3332V14.9998C7.5 15.9203 8.24619 16.6665 9.16667 16.6665H13.3333C14.2538 16.6665 15 15.9203 15 14.9998V13.3332C15 12.4127 14.2538 11.6665 13.3333 11.6665Z" fill="#808080"/>
<path d="M18.3333 18.3332V1.6665" stroke="#808080" stroke-width="1.6" stroke-linecap="round" stroke-linejoin="round"/>
</svg>
