<svg width="12" height="12" viewBox="0 0 12 12" fill="none" xmlns="http://www.w3.org/2000/svg">
<g id="unlink" clip-path="url(#clip0_243_5717)">
<path id="Vector" d="M9.41945 6.125L10.2795 5.27H10.2695C10.7298 4.79302 10.982 4.15286 10.9707 3.49008C10.9595 2.82731 10.6857 2.19608 10.2095 1.735C9.74292 1.28509 9.12007 1.03369 8.47195 1.03369C7.82383 1.03369 7.20098 1.28509 6.73445 1.735L5.87445 2.59" stroke="white" stroke-width="1.2" stroke-linecap="round" stroke-linejoin="round"/>
<path id="Vector_2" d="M2.58454 5.875L1.72954 6.73C1.26923 7.20698 1.017 7.84714 1.02825 8.50991C1.0395 9.17269 1.3133 9.80392 1.78954 10.265C2.25607 10.7149 2.87892 10.9663 3.52704 10.9663C4.17516 10.9663 4.79802 10.7149 5.26454 10.265L6.11954 9.41" stroke="white" stroke-width="1.2" stroke-linecap="round" stroke-linejoin="round"/>
<path id="Vector_3" d="M3.99945 1V2.5" stroke="white" stroke-width="1.2" stroke-linecap="round" stroke-linejoin="round"/>
<path id="Vector_4" d="M0.999451 4H2.49945" stroke="white" stroke-width="1.2" stroke-linecap="round" stroke-linejoin="round"/>
<path id="Vector_5" d="M8.00055 9.5V11" stroke="white" stroke-width="1.2" stroke-linecap="round" stroke-linejoin="round"/>
<path id="Vector_6" d="M9.50055 8H11.0005" stroke="white" stroke-width="1.2" stroke-linecap="round" stroke-linejoin="round"/>
</g>
<defs>
<clipPath id="clip0_243_5717">
<rect width="12" height="12" fill="white"/>
</clipPath>
</defs>
</svg>
