<svg width="20" height="20" viewBox="0 0 20 20" fill="none" xmlns="http://www.w3.org/2000/svg">
<path d="M17 3.66667L17 2.33333C17 1.59695 16.2165 1 15.25 1L4.75 0.999999C3.7835 0.999999 3 1.59695 3 2.33333L3 3.66667C3 4.40305 3.7835 5 4.75 5L15.25 5C16.2165 5 17 4.40305 17 3.66667Z" fill="#808080"/>
<path d="M17 17.6667L17 16.3333C17 15.597 16.2165 15 15.25 15L4.75 15C3.7835 15 3 15.597 3 16.3333L3 17.6667C3 18.403 3.7835 19 4.75 19L15.25 19C16.2165 19 17 18.403 17 17.6667Z" fill="#808080"/>
<path d="M10 7L10 13" stroke="#808080" stroke-width="1.6" stroke-linecap="round" stroke-linejoin="round"/>
</svg>
