<svg width="20" height="20" viewBox="0 0 20 20" fill="none" xmlns="http://www.w3.org/2000/svg">
<path d="M16 5.66667L16 4.33333C16 3.59695 15.3284 3 14.5 3L5.49996 3C4.67153 3 3.99996 3.59695 3.99996 4.33333L3.99996 5.66667C3.99996 6.40305 4.67153 7 5.49996 7L14.5 7C15.3284 7 16 6.40305 16 5.66667Z" fill="#808080"/>
<path d="M16 15.6667L16 14.3333C16 13.597 15.3284 13 14.5 13L5.49996 13C4.67153 13 3.99996 13.597 3.99996 14.3333L3.99996 15.6667C3.99996 16.403 4.67153 17 5.49996 17L14.5 17C15.3284 17 16 16.403 16 15.6667Z" fill="#808080"/>
<path d="M17 6L17 4C17 2.89543 16.2165 2 15.25 2L4.74996 2C3.78346 2 2.99996 2.89543 2.99996 4L2.99996 6C2.99996 7.10457 3.78346 8 4.74996 8L15.25 8C16.2165 8 17 7.10457 17 6Z" stroke="#808080" stroke-width="0.7" stroke-linecap="round" stroke-linejoin="round"/>
<path d="M17 16L17 14C17 12.8954 16.2165 12 15.25 12L4.74996 12C3.78346 12 2.99996 12.8954 2.99996 14L2.99996 16C2.99996 17.1046 3.78346 18 4.74996 18L15.25 18C16.2165 18 17 17.1046 17 16Z" stroke="#808080" stroke-width="0.7" stroke-linecap="round" stroke-linejoin="round"/>
</svg>
