<svg width="20" height="20" viewBox="0 0 20 20" fill="none" xmlns="http://www.w3.org/2000/svg">
<path d="M10 1.6665V18.3332" stroke="#808080" stroke-width="1.6" stroke-linecap="round" stroke-linejoin="round"/>
<path d="M6.66667 8H3.33334C2.89131 8 2.46739 7.8244 2.15483 7.51184C1.84227 7.19928 1.66667 6.77536 1.66667 6.33333V4.66667C1.66667 3.75 2.41667 3 3.33334 3H6.66667" fill="#808080"/>
<path d="M6.66667 17H3.33334C2.89131 17 2.46739 16.8244 2.15483 16.5118C1.84227 16.1993 1.66667 15.7754 1.66667 15.3333V13.6667C1.66667 12.75 2.41667 12 3.33334 12H6.66667" fill="#808080"/>
<path d="M13.3333 8H16.6666C17.1087 8 17.5326 7.8244 17.8451 7.51184C18.1577 7.19928 18.3333 6.77536 18.3333 6.33333V4.66667C18.3333 4.22464 18.1577 3.80072 17.8451 3.48816C17.5326 3.17559 17.1087 3 16.6666 3H13.3333" fill="#808080"/>
<path d="M13.3333 17H16.6666C17.1087 17 17.5326 16.8244 17.8451 16.5118C18.1577 16.1993 18.3333 15.7754 18.3333 15.3333V13.6667C18.3333 13.2246 18.1577 12.8007 17.8451 12.4882C17.5326 12.1756 17.1087 12 16.6666 12H13.3333" fill="#808080"/>
</svg>
