<svg width="20" height="20" viewBox="0 0 20 20" fill="none" xmlns="http://www.w3.org/2000/svg">
<path d="M10.8333 11.6665H6.66667C5.74619 11.6665 5 12.4127 5 13.3332V14.9998C5 15.9203 5.74619 16.6665 6.66667 16.6665H10.8333C11.7538 16.6665 12.5 15.9203 12.5 14.9998V13.3332C12.5 12.4127 11.7538 11.6665 10.8333 11.6665Z" fill="#808080"/>
<path d="M16.6667 3.33301H6.66667C5.74619 3.33301 5 4.0792 5 4.99967V6.66634C5 7.58682 5.74619 8.33301 6.66667 8.33301H16.6667C17.5871 8.33301 18.3333 7.58682 18.3333 6.66634V4.99967C18.3333 4.0792 17.5871 3.33301 16.6667 3.33301Z" fill="#808080"/>
<path d="M1.66666 1.6665V18.3332" stroke="#808080" stroke-width="1.6" stroke-linecap="round" stroke-linejoin="round"/>
</svg>
